<?xml version="1.0" encoding="UTF-8"?>
<svg version="1.1" xmlns="http://www.w3.org/2000/svg" width="512" height="512">
<path d="M0 0 C1.01790619 0.00215515 2.03581238 0.0043103 3.08456421 0.00653076 C17.69363523 0.05620146 32.02575853 0.30709809 46.375 3.3125 C47.34985352 3.51117676 48.32470703 3.70985352 49.32910156 3.91455078 C97.7109774 14.03517194 141.69928269 35.9516877 177.375 70.3125 C178.3640332 71.26068604 178.3640332 71.26068604 179.37304688 72.22802734 C188.86130305 81.37247479 197.6012044 90.66984009 205.375 101.3125 C206.23306152 102.46355017 207.09113451 103.61459177 207.94921875 104.765625 C213.98736829 112.95680614 219.34595521 121.47054105 224.375 130.3125 C224.73948242 130.94430176 225.10396484 131.57610352 225.47949219 132.22705078 C247.08534998 169.97532572 256.85198095 212.74189997 256.6875 255.9375 C256.68534485 256.95540619 256.6831897 257.97331238 256.68096924 259.02206421 C256.63129854 273.63113523 256.38040191 287.96325853 253.375 302.3125 C253.07698486 303.77478027 253.07698486 303.77478027 252.77294922 305.26660156 C242.65232806 353.6484774 220.7358123 397.63678269 186.375 433.3125 C185.74287598 433.97185547 185.11075195 434.63121094 184.45947266 435.31054688 C175.31502521 444.79880305 166.01765991 453.5387044 155.375 461.3125 C154.22394983 462.17056152 153.07290823 463.02863451 151.921875 463.88671875 C143.73224019 469.92427396 135.22961724 475.30707302 126.375 480.3125 C125.66778809 480.7146875 124.96057617 481.116875 124.23193359 481.53125 C101.09654164 494.5566741 75.92537591 503.30551461 49.9375 508.625 C49.21860596 508.77235596 48.49971191 508.91971191 47.7590332 509.0715332 C33.08339502 511.86090125 18.55831162 512.66142619 3.64770508 512.62817383 C0.70811513 512.6250221 -2.2304558 512.64854926 -5.16992188 512.67382812 C-18.54306192 512.71848737 -31.43916711 511.51301542 -44.625 509.3125 C-46.33055054 509.03031616 -46.33055054 509.03031616 -48.07055664 508.74243164 C-91.33802759 500.97044532 -132.38793216 480.98345309 -165.625 452.3125 C-166.37007813 451.67828125 -167.11515625 451.0440625 -167.8828125 450.390625 C-181.38779833 438.57948485 -194.05918743 425.82889772 -204.625 411.3125 C-205.48149066 410.16255169 -206.33826433 409.01281411 -207.1953125 407.86328125 C-213.23534209 399.67315742 -218.61867614 391.16870382 -223.625 382.3125 C-224.0271875 381.60528809 -224.429375 380.89807617 -224.84375 380.16943359 C-237.8691741 357.03404164 -246.61801461 331.86287591 -251.9375 305.875 C-252.08485596 305.15610596 -252.23221191 304.43721191 -252.3840332 303.6965332 C-255.35789088 288.05024391 -255.99800362 272.57681954 -255.9375 256.6875 C-255.93534485 255.66959381 -255.9331897 254.65168762 -255.93096924 253.60293579 C-255.88129854 238.99386477 -255.63040191 224.66174147 -252.625 210.3125 C-252.42632324 209.33764648 -252.22764648 208.36279297 -252.02294922 207.35839844 C-241.90232806 158.9765226 -219.9858123 114.98821731 -185.625 79.3125 C-184.99287598 78.65314453 -184.36075195 77.99378906 -183.70947266 77.31445312 C-174.56502521 67.82619695 -165.26765991 59.0862956 -154.625 51.3125 C-153.47394983 50.45443848 -152.32290823 49.59636549 -151.171875 48.73828125 C-142.98224019 42.70072604 -134.47961724 37.31792698 -125.625 32.3125 C-124.91778809 31.9103125 -124.21057617 31.508125 -123.48193359 31.09375 C-100.34654164 18.0683259 -75.17537591 9.31948539 -49.1875 4 C-48.46860596 3.85264404 -47.74971191 3.70528809 -47.0090332 3.5534668 C-31.36274391 0.57960912 -15.88931954 -0.06050362 0 0 Z " fill="#1B0748" transform="translate(255.625,-0.3125)"/>
<path d="M0 0 C0.78025622 -0.00226556 1.56051244 -0.00453111 2.36441278 -0.00686532 C4.99307875 -0.01322287 7.62169339 -0.01237484 10.25036621 -0.0115509 C12.12916633 -0.01454126 14.00796584 -0.0179435 15.88676453 -0.02172852 C21.00025694 -0.03058432 26.11373264 -0.03290727 31.22723198 -0.0335443 C35.48948358 -0.03449197 39.75173125 -0.03816854 44.01398134 -0.0417164 C54.06494628 -0.04986664 64.11590226 -0.05230008 74.16687012 -0.05158997 C84.55175039 -0.05098872 94.9365788 -0.06154852 105.32144594 -0.07733363 C114.2242064 -0.0903861 123.12694986 -0.09577484 132.02971983 -0.09513456 C137.35286499 -0.09487893 142.67596406 -0.09776557 147.99909973 -0.10831261 C153.00261106 -0.11795534 158.00603186 -0.11809923 163.00954628 -0.11079597 C164.85024967 -0.10974541 166.69095859 -0.11214074 168.53165245 -0.11815643 C171.03577703 -0.12581297 173.539584 -0.1212741 176.04370117 -0.11352539 C176.77968237 -0.11866895 177.51566358 -0.12381252 178.27394724 -0.12911195 C183.29357915 -0.09455866 183.29357915 -0.09455866 185.52185059 2.13371277 C185.2550064 6.30230523 183.86519573 8.28596889 180.95178223 11.17375183 C180.19752457 11.93093506 179.44326691 12.68811829 178.66615295 13.46824646 C177.43650063 14.67163666 177.43650063 14.67163666 176.18200684 15.89933777 C174.92606972 17.15034271 174.92606972 17.15034271 173.64476013 18.42662048 C171.87477355 20.18618914 170.1000322 21.94098591 168.32092285 23.69132996 C165.58963542 26.37851328 162.87195342 29.07885938 160.15661621 31.78215027 C158.43668561 33.48865838 156.71600772 35.19441374 154.99450684 36.89933777 C154.17676285 37.70969482 153.35901886 38.52005188 152.51649475 39.35496521 C151.75908493 40.09953979 151.00167511 40.84411438 150.22131348 41.61125183 C149.55370499 42.26901611 148.8860965 42.9267804 148.19825745 43.60447693 C144.77811754 46.72436426 141.43595734 46.27666743 137.04370117 46.26742554 C136.26344495 46.26969109 135.48318873 46.27195665 134.67928839 46.27429086 C132.05062242 46.28064841 129.42200779 46.27980038 126.79333496 46.27897644 C124.91453484 46.2819668 123.03573533 46.28536904 121.15693665 46.28915405 C116.04344423 46.29800986 110.92996853 46.3003328 105.81646919 46.30096984 C101.55421759 46.30191751 97.29196992 46.30559408 93.02971983 46.30914193 C82.97875489 46.31729218 72.92779892 46.31972561 62.87683105 46.3190155 C52.49195078 46.31841426 42.10712237 46.32897406 31.72225523 46.34475917 C22.81949477 46.35781164 13.91675131 46.36320038 5.01398134 46.36256009 C-0.30916382 46.36230447 -5.63226289 46.3651911 -10.95539856 46.37573814 C-15.95890989 46.38538088 -20.96233069 46.38552477 -25.96584511 46.37822151 C-27.8065485 46.37717095 -29.64725742 46.37956627 -31.48795128 46.38558197 C-33.99207586 46.39323851 -36.49588283 46.38869964 -39 46.38095093 C-40.1039718 46.38866627 -40.1039718 46.38866627 -41.23024607 46.39653748 C-46.24987798 46.3619842 -46.24987798 46.3619842 -48.47814941 44.13371277 C-48.21130523 39.96512031 -46.82149455 37.98145665 -43.90808105 35.09367371 C-43.15382339 34.33649048 -42.39956573 33.57930725 -41.62245178 32.79917908 C-40.80268356 31.99691895 -39.98291534 31.19465881 -39.13830566 30.36808777 C-38.30101425 29.53408447 -37.46372284 28.70008118 -36.60105896 27.84080505 C-34.83107238 26.0812364 -33.05633102 24.32643963 -31.27722168 22.57609558 C-28.54593424 19.88891226 -25.82825224 17.18856616 -23.11291504 14.48527527 C-21.39298443 12.77876715 -19.67230655 11.0730118 -17.95080566 9.36808777 C-17.13306168 8.55773071 -16.31531769 7.74737366 -15.47279358 6.91246033 C-14.71538376 6.16788574 -13.95797394 5.42331116 -13.1776123 4.65617371 C-12.51000381 3.99840942 -11.84239532 3.34064514 -11.15455627 2.66294861 C-7.73441636 -0.45693872 -4.39225616 -0.00924189 0 0 Z " fill="#A159E6" transform="translate(187.4781494140625,301.8662872314453)"/>
<path d="M0 0 C0.78025622 -0.00226556 1.56051244 -0.00453111 2.36441278 -0.00686532 C4.99307875 -0.01322287 7.62169339 -0.01237484 10.25036621 -0.0115509 C12.12916633 -0.01454126 14.00796584 -0.0179435 15.88676453 -0.02172852 C21.00025694 -0.03058432 26.11373264 -0.03290727 31.22723198 -0.0335443 C35.48948358 -0.03449197 39.75173125 -0.03816854 44.01398134 -0.0417164 C54.06494628 -0.04986664 64.11590226 -0.05230008 74.16687012 -0.05158997 C84.55175039 -0.05098872 94.9365788 -0.06154852 105.32144594 -0.07733363 C114.2242064 -0.0903861 123.12694986 -0.09577484 132.02971983 -0.09513456 C137.35286499 -0.09487893 142.67596406 -0.09776557 147.99909973 -0.10831261 C153.00261106 -0.11795534 158.00603186 -0.11809923 163.00954628 -0.11079597 C164.85024967 -0.10974541 166.69095859 -0.11214074 168.53165245 -0.11815643 C171.03577703 -0.12581297 173.539584 -0.1212741 176.04370117 -0.11352539 C176.77968237 -0.11866895 177.51566358 -0.12381252 178.27394724 -0.12911195 C183.29357915 -0.09455866 183.29357915 -0.09455866 185.52185059 2.13371277 C185.2550064 6.30230523 183.86519573 8.28596889 180.95178223 11.17375183 C180.19752457 11.93093506 179.44326691 12.68811829 178.66615295 13.46824646 C177.43650063 14.67163666 177.43650063 14.67163666 176.18200684 15.89933777 C174.92606972 17.15034271 174.92606972 17.15034271 173.64476013 18.42662048 C171.87477355 20.18618914 170.1000322 21.94098591 168.32092285 23.69132996 C165.58963542 26.37851328 162.87195342 29.07885938 160.15661621 31.78215027 C158.43668561 33.48865838 156.71600772 35.19441374 154.99450684 36.89933777 C154.17676285 37.70969482 153.35901886 38.52005188 152.51649475 39.35496521 C151.75908493 40.09953979 151.00167511 40.84411438 150.22131348 41.61125183 C149.55370499 42.26901611 148.8860965 42.9267804 148.19825745 43.60447693 C144.77811754 46.72436426 141.43595734 46.27666743 137.04370117 46.26742554 C136.26344495 46.26969109 135.48318873 46.27195665 134.67928839 46.27429086 C132.05062242 46.28064841 129.42200779 46.27980038 126.79333496 46.27897644 C124.91453484 46.2819668 123.03573533 46.28536904 121.15693665 46.28915405 C116.04344423 46.29800986 110.92996853 46.3003328 105.81646919 46.30096984 C101.55421759 46.30191751 97.29196992 46.30559408 93.02971983 46.30914193 C82.97875489 46.31729218 72.92779892 46.31972561 62.87683105 46.3190155 C52.49195078 46.31841426 42.10712237 46.32897406 31.72225523 46.34475917 C22.81949477 46.35781164 13.91675131 46.36320038 5.01398134 46.36256009 C-0.30916382 46.36230447 -5.63226289 46.3651911 -10.95539856 46.37573814 C-15.95890989 46.38538088 -20.96233069 46.38552477 -25.96584511 46.37822151 C-27.8065485 46.37717095 -29.64725742 46.37956627 -31.48795128 46.38558197 C-33.99207586 46.39323851 -36.49588283 46.38869964 -39 46.38095093 C-40.1039718 46.38866627 -40.1039718 46.38866627 -41.23024607 46.39653748 C-46.24987798 46.3619842 -46.24987798 46.3619842 -48.47814941 44.13371277 C-48.21130523 39.96512031 -46.82149455 37.98145665 -43.90808105 35.09367371 C-43.15382339 34.33649048 -42.39956573 33.57930725 -41.62245178 32.79917908 C-40.80268356 31.99691895 -39.98291534 31.19465881 -39.13830566 30.36808777 C-38.30101425 29.53408447 -37.46372284 28.70008118 -36.60105896 27.84080505 C-34.83107238 26.0812364 -33.05633102 24.32643963 -31.27722168 22.57609558 C-28.54593424 19.88891226 -25.82825224 17.18856616 -23.11291504 14.48527527 C-21.39298443 12.77876715 -19.67230655 11.0730118 -17.95080566 9.36808777 C-17.13306168 8.55773071 -16.31531769 7.74737366 -15.47279358 6.91246033 C-14.71538376 6.16788574 -13.95797394 5.42331116 -13.1776123 4.65617371 C-12.51000381 3.99840942 -11.84239532 3.34064514 -11.15455627 2.66294861 C-7.73441636 -0.45693872 -4.39225616 -0.00924189 0 0 Z " fill="#00FEA2" transform="translate(187.4781494140625,163.8662872314453)"/>
<path d="M0 0 C1.10366915 0.00157627 1.10366915 0.00157627 2.22963464 0.00318438 C3.00974102 -0.00346343 3.7898474 -0.01011124 4.59359336 -0.0169605 C7.2220947 -0.03673196 9.8504262 -0.04204242 12.47899377 -0.04733747 C14.35791477 -0.05822708 16.23683138 -0.06989818 18.11574304 -0.08229536 C23.23169185 -0.11286696 28.34759558 -0.12983557 33.46361721 -0.14251155 C36.65944773 -0.15058745 39.8552652 -0.16076782 43.05108774 -0.17152685 C53.04850967 -0.20426796 63.04590004 -0.22815864 73.04336834 -0.24034071 C84.58626353 -0.25458843 96.12854655 -0.29842989 107.6712389 -0.3678422 C116.59023506 -0.41962765 125.50905722 -0.44451442 134.42820144 -0.44916284 C139.75625005 -0.4525616 145.0836804 -0.46742857 150.411569 -0.51044363 C155.42687345 -0.55022318 160.44112894 -0.55658747 165.45654428 -0.53754324 C167.2947586 -0.53627792 169.13302675 -0.54693569 170.97108972 -0.57055753 C186.58713145 -0.75974675 186.58713145 -0.75974675 191.66988122 3.61414629 C192.73007904 4.81195614 193.75957272 6.03776545 194.75389612 7.29079729 C196.02185075 8.52292435 197.30252153 9.74219874 198.59959924 10.94362932 C202.09365289 14.34999628 205.56459262 17.77988362 209.02928674 21.21609026 C210.52140158 22.69150232 212.01888 24.16150833 213.52147424 25.62624651 C215.70485296 27.75508819 217.87152744 29.89971068 220.03514612 32.04860979 C220.71001062 32.70080492 221.38487512 33.35300005 222.08019006 34.02495867 C226.639488 38.60539074 226.639488 38.60539074 227.23631799 42.18093401 C226.75389612 44.29079729 226.75389612 44.29079729 225.75389612 45.29079729 C223.29223766 45.41730691 220.85747486 45.47868565 218.39409387 45.49853045 C217.22438236 45.51357062 217.22438236 45.51357062 216.03104031 45.52891463 C213.39735015 45.56120201 210.76364505 45.58601169 208.12987268 45.61062151 C206.24936139 45.63160619 204.368853 45.65285252 202.48834741 45.67434222 C185.2771887 45.86253134 168.06505532 45.96500544 150.85309732 46.04648691 C138.13230037 46.10799014 125.41327895 46.21136755 112.69330561 46.36918157 C103.74882444 46.47641225 94.80483031 46.53356317 85.85973656 46.55461806 C80.5190256 46.56866424 75.18063594 46.60490449 69.8406347 46.69585329 C64.80664963 46.78069825 59.77608852 46.80319203 54.74148118 46.77949053 C52.90200901 46.78145772 51.06239676 46.80540664 49.22356355 46.85392672 C40.39380162 47.07487023 33.69587435 47.01481344 27.01539814 40.71856707 C24.90109867 38.49085621 22.92608137 36.18344847 21.00483215 33.78812343 C19.35863221 31.81768039 17.50636195 30.18263761 15.53123987 28.54860979 C10.92588335 24.623961 6.61995621 20.4164881 2.31639612 16.16579729 C1.50235315 15.38075823 0.68831018 14.59571917 -0.15040076 13.78689104 C-0.92319373 13.02247698 -1.6959867 12.25806292 -2.49219763 11.47048479 C-3.19014441 10.78712054 -3.88809119 10.10375628 -4.60718787 9.39968401 C-6.49594991 6.96930616 -7.0642391 5.35308401 -7.24610388 2.29079729 C-4.77871129 -0.1765953 -3.36835701 0.04185599 0 0 Z " fill="#00FEA2" transform="translate(146.2461038827896,232.7092027068138)"/>
</svg>
